<?xml version="1.0" encoding="UTF-8"?>
<svg id="Ebene_2" data-name="Ebene 2" xmlns="http://www.w3.org/2000/svg" viewBox="0 0 606.12 147.09">
  <defs>
    <style>
      .cls-1 {
        fill: #525149;
      }

      .cls-2 {
        fill: #e73137;
      }
    </style>
  </defs>
  <g id="Ebene_1-2" data-name="Ebene 1">
    <g>
      <path class="cls-1" d="M350.83,118.98c-2.86,1.53-7.29,2.41-13.3,2.66-.07.46-.14,1.04-.21,1.76-.07.72-.11,1.38-.11,1.97,0,1.23.11,2.23.32,3,.21.77.57,1.38,1.06,1.81.5.44,1.14.75,1.94.92.8.18,1.78.26,2.95.26,1.28,0,2.54-.13,3.8-.39,1.26-.26,2.44-.64,3.53-1.13v2.79c-1.13.49-2.42.87-3.85,1.13-1.44.26-3,.39-4.7.39-2.8,0-4.91-.61-6.35-1.84-1.43-1.23-2.15-3.35-2.15-6.36,0-2.38.31-4.71.93-6.97.62-2.26,1.52-4.27,2.71-6.02,1.19-1.75,2.66-3.16,4.44-4.21,1.77-1.05,3.81-1.58,6.11-1.58,2.45,0,4.25.54,5.42,1.63,1.17,1.09,1.75,2.42,1.75,4,0,2.59-1.43,4.65-4.29,6.18ZM350.52,110.57c-.76-.58-1.76-.87-3-.87s-2.3.24-3.29.71c-.99.47-1.88,1.11-2.66,1.92-.78.81-1.45,1.77-2.02,2.89-.57,1.12-1.03,2.31-1.38,3.58,4.78-.17,8.23-.74,10.34-1.68,2.11-.95,3.16-2.28,3.16-4,0-1.12-.38-1.97-1.14-2.55Z"/>
      <path class="cls-1" d="M362.77,133.73h-3.24l7.39-38.39h3.24l-7.39,38.39Z"/>
      <path class="cls-1" d="M394.74,118.09c-.51,2.65-.94,4.89-1.28,6.73-.34,1.84-.64,3.43-.9,4.76-.27,1.33-.52,2.72-.77,4.15h-3.4c.25-1.23.66-2.85,1.22-4.86.57-2.02,1.31-4.48,2.23-7.39l-.11-.05c-.43,1.02-1.01,2.26-1.75,3.73-.74,1.47-1.67,2.87-2.76,4.21-1.1,1.33-2.37,2.47-3.8,3.42-1.44.95-3.06,1.42-4.86,1.42s-3.25-.61-4.22-1.84c-.97-1.23-1.46-3.21-1.46-5.94,0-2.35.31-4.67.93-6.97.62-2.3,1.58-4.35,2.9-6.15,1.31-1.81,3-3.26,5.08-4.37,2.07-1.1,4.54-1.66,7.41-1.66,1.45,0,2.8.06,4.04.18,1.24.12,2.41.31,3.51.55-.82,4.07-1.48,7.42-1.99,10.07ZM391.07,109.96c-.73-.11-1.51-.16-2.36-.16-2.27,0-4.19.49-5.77,1.48-1.58.98-2.85,2.26-3.83,3.82-.97,1.56-1.68,3.29-2.13,5.19-.44,1.9-.66,3.74-.66,5.53,0,2,.29,3.44.88,4.3.58.86,1.34,1.29,2.26,1.29.99,0,1.97-.3,2.92-.9.96-.6,1.89-1.4,2.79-2.4.9-1,1.75-2.15,2.55-3.45.8-1.3,1.52-2.64,2.18-4.03.66-1.39,1.21-2.76,1.67-4.11.46-1.35.8-2.61,1.01-3.77l.48-2.37c-.6-.18-1.27-.32-1.99-.42Z"/>
      <path class="cls-1" d="M417.67,110.33c-1.35-.42-2.78-.63-4.3-.63-1.99,0-3.49.43-4.52,1.29-1.03.86-1.54,1.95-1.54,3.25,0,.81.22,1.52.66,2.14.44.62.98,1.19,1.62,1.72.64.53,1.35,1.05,2.13,1.56.78.51,1.49,1.06,2.12,1.64.64.58,1.18,1.25,1.62,2.01.44.76.66,1.63.66,2.61,0,1.09-.24,2.13-.73,3.12-.49.99-1.19,1.86-2.13,2.61-.93.76-2.08,1.37-3.44,1.82-1.36.46-2.92.69-4.65.69-.89,0-1.67-.03-2.37-.08-.69-.05-1.37-.13-2.05-.23l.64-3.16c.71.21,1.43.38,2.15.5.73.12,1.5.18,2.31.18,2.02,0,3.66-.4,4.92-1.21,1.26-.81,1.89-2.04,1.89-3.69,0-.77-.22-1.46-.66-2.05-.44-.6-.98-1.15-1.62-1.66-.64-.51-1.35-1.01-2.13-1.5-.78-.49-1.49-1.04-2.13-1.66-.64-.61-1.18-1.31-1.62-2.08-.44-.77-.66-1.7-.66-2.79s.22-2.04.65-2.95c.43-.91,1.07-1.71,1.91-2.4.84-.69,1.88-1.22,3.1-1.61,1.22-.39,2.63-.58,4.23-.58.99,0,1.83.03,2.52.1.69.07,1.37.17,2.05.3l-.64,2.75Z"/>
      <path class="cls-1" d="M439.83,110.12h-7.87l-2.87,14.99c-.21,1.16-.33,2.12-.34,2.89-.02.77.07,1.39.27,1.84.19.46.51.77.96.95.44.18,1.04.26,1.78.26.82,0,1.53-.04,2.15-.11.62-.07,1.21-.17,1.78-.32l-.11,2.98c-.71.15-1.47.26-2.29.35-.82.09-1.58.14-2.29.14-2.62,0-4.31-.64-5.08-1.93-.76-1.29-.86-3.37-.29-6.26l3.03-15.79h-5.95l.53-2.52h5.95l1.7-8.83,3.51-.84-1.91,9.68h7.87l-.53,2.52Z"/>
      <path class="cls-1" d="M446.21,133.73h-3.24l5.05-26.14h3.24l-5.05,26.14ZM452.61,101.92c-.48.46-1.05.68-1.73.68-.64,0-1.18-.23-1.62-.68-.44-.46-.63-1.02-.56-1.68.07-.66.35-1.23.82-1.68.48-.46,1.05-.68,1.73-.68.64,0,1.18.22,1.62.66.44.44.63.99.56,1.66-.07.7-.35,1.28-.82,1.74Z"/>
      <path class="cls-1" d="M476.18,110.91c-.78-.35-1.6-.63-2.47-.84-.87-.21-1.85-.32-2.95-.32-1.88,0-3.5.48-4.86,1.43-1.36.95-2.51,2.17-3.43,3.66-.92,1.48-1.6,3.12-2.05,4.93-.44,1.8-.66,3.53-.66,5.19,0,.74.07,1.49.21,2.25.14.76.43,1.44.88,2.04.44.6,1.06,1.09,1.86,1.46.8.37,1.85.56,3.16.56,1.17,0,2.34-.14,3.51-.42,1.17-.28,2.21-.65,3.14-1.1l-.11,2.92c-.92.38-2.01.71-3.27.98-1.26.27-2.63.41-4.12.41-1.7,0-3.11-.22-4.22-.66-1.11-.44-2-1.03-2.67-1.76-.67-.74-1.14-1.61-1.42-2.63-.27-1.02-.41-2.1-.41-3.26,0-2.49.33-4.86.98-7.1.65-2.24,1.61-4.21,2.87-5.89,1.26-1.68,2.81-3.02,4.65-4.02,1.84-1,3.95-1.5,6.32-1.5,1.13,0,2.17.08,3.11.25.94.17,1.83.39,2.68.66l-.74,2.77Z"/>
      <path class="cls-1" d="M499.14,128.74c-3.33,5.79-6.64,10.32-9.94,13.62-3.15,3.16-6.34,4.73-9.57,4.73-.67,0-1.33-.03-1.97-.08-.64-.05-1.22-.15-1.75-.28l.8-4.16c1.03.35,2.14.53,3.35.53.92,0,1.9-.26,2.92-.79,1.03-.53,2-1.27,2.92-2.22,1.03-1.12,1.78-2.33,2.26-3.61.48-1.28.72-2.87.72-4.77,0-3.51-.35-7.35-1.04-11.5-.69-4.15-1.64-8.35-2.84-12.6h5.31c.43,1.69.82,3.46,1.2,5.3s.69,3.67.96,5.46c.27,1.79.47,3.52.61,5.19.14,1.67.21,3.21.21,4.61,0,.49-.04,1.03-.11,1.61-.07.58-.16,1.13-.27,1.66h.05c1.06-1.83,2.08-3.68,3.06-5.56.97-1.88,1.95-3.83,2.92-5.85.97-2.02,1.96-4.14,2.95-6.36.99-2.22,2-4.59,3.03-7.12l4.46,1.31c-3.51,8.13-6.93,15.09-10.26,20.88Z"/>
      <path class="cls-1" d="M533.68,117.27c-.5,2.56-.92,4.79-1.28,6.71-.35,1.91-.67,3.62-.96,5.13-.28,1.51-.57,3.05-.85,4.63h-4.73c.46-2.21,1.49-5.75,3.08-10.62l-.11-.05c-.5,1.02-1.11,2.17-1.83,3.47-.73,1.3-1.6,2.52-2.63,3.65-1.03,1.14-2.2,2.1-3.51,2.89-1.31.79-2.76,1.18-4.36,1.18-1.91,0-3.37-.63-4.38-1.89-1.01-1.26-1.51-3.28-1.51-6.05,0-2.42.32-4.78.96-7.07s1.64-4.34,3-6.13c1.36-1.79,3.09-3.22,5.18-4.31,2.09-1.09,4.57-1.63,7.44-1.63,1.52,0,2.98.07,4.36.21,1.38.14,2.69.33,3.93.58-.71,3.65-1.31,6.75-1.81,9.31ZM528.45,110.99c-.62-.09-1.3-.13-2.05-.13-1.99,0-3.67.46-5.05,1.37-1.38.92-2.51,2.08-3.37,3.49-.87,1.41-1.51,2.98-1.91,4.71-.41,1.73-.61,3.4-.61,5.02,0,1.73.25,2.96.74,3.7.5.74,1.15,1.11,1.97,1.11,1.24,0,2.49-.58,3.75-1.74,1.26-1.16,2.42-2.6,3.48-4.31,1.06-1.71,1.98-3.53,2.76-5.47.78-1.94,1.33-3.7,1.65-5.29l.37-2.12c-.53-.14-1.11-.25-1.73-.34Z"/>
      <path class="cls-1" d="M557.17,111.7c-1.24-.35-2.46-.04-3.67.92-1.21.96-2.33,2.27-3.37,3.92-1.05,1.65-1.96,3.49-2.74,5.52-.78,2.03-1.35,3.96-1.7,5.78l-1.12,5.89h-4.68l5-26.14h4.57c-.21,1.12-.52,2.44-.93,3.94-.41,1.51-1,3.4-1.78,5.68l.11.05c.74-1.58,1.51-3.04,2.29-4.39.78-1.35,1.62-2.48,2.52-3.39.9-.91,1.89-1.59,2.95-2.03,1.06-.44,2.23-.55,3.51-.34l-.96,4.58Z"/>
      <path class="cls-1" d="M580.08,133.73h-4.68l3.24-16.76c.39-2.07.4-3.57.03-4.51-.37-.93-1.16-1.4-2.37-1.4s-2.47.57-3.69,1.71c-1.22,1.14-2.37,2.56-3.43,4.24-1.06,1.69-1.99,3.51-2.76,5.45-.78,1.95-1.33,3.73-1.65,5.35l-1.12,5.9h-4.68l2.66-13.67c.35-1.89.74-3.96,1.17-6.21.43-2.24.81-4.33,1.17-6.26h4.62c-.18.88-.48,2.11-.9,3.71-.42,1.6-1.1,3.8-2.02,6.6h.11c.64-1.37,1.37-2.71,2.21-4.02.83-1.31,1.76-2.47,2.79-3.47,1.03-1,2.14-1.81,3.35-2.42,1.2-.61,2.5-.92,3.88-.92,2.45,0,4.1.8,4.97,2.39.87,1.6,1.05,3.76.56,6.49l-3.45,17.77Z"/>
      <path class="cls-1" d="M605.27,111.44c-1.28-.42-2.6-.63-3.99-.63-1.74,0-3.05.36-3.93,1.07-.89.72-1.33,1.63-1.33,2.75,0,.7.19,1.32.58,1.86.39.54.88,1.06,1.48,1.54.6.49,1.24.99,1.93,1.49.69.51,1.33,1.06,1.93,1.65.6.59,1.09,1.26,1.48,1.99.39.73.58,1.59.58,2.57,0,1.08-.23,2.14-.7,3.17-.47,1.03-1.17,1.94-2.11,2.72-.94.79-2.11,1.41-3.52,1.88-1.41.47-3.06.71-4.93.71-1.77,0-3.28-.13-4.52-.38l.85-4.3c.71.21,1.42.38,2.13.5.71.12,1.43.18,2.18.18,1.74,0,3.14-.34,4.2-1.02,1.06-.68,1.59-1.7,1.59-3.06,0-.7-.2-1.31-.58-1.83-.39-.52-.89-1.02-1.49-1.49-.6-.47-1.24-.94-1.91-1.41-.67-.47-1.31-1-1.91-1.6-.6-.59-1.1-1.27-1.49-2.04-.39-.77-.58-1.67-.58-2.72,0-1.12.22-2.16.66-3.12s1.1-1.8,1.97-2.51c.88-.71,1.97-1.27,3.28-1.67,1.31-.4,2.81-.6,4.51-.6.92,0,1.74.04,2.45.11.71.07,1.4.16,2.07.27l-.85,3.93Z"/>
    </g>
    <g>
      <path class="cls-2" d="M0,0h18.84v69.84h41.76v15.84H0V0Z"/>
      <path class="cls-2" d="M74.24,0h64.08v15.84h-45.24v18.36h41.52v14.64h-41.52v21h46.2v15.84h-65.04V0Z"/>
      <path class="cls-2" d="M157.22,0h36.96c22.2,0,38.88,13.92,38.88,42.36,0,24.84-12.72,43.32-38.88,43.32h-36.96V0ZM176.06,69.84h16.8c10.92,0,21.36-6.72,21.36-25.68,0-17.28-6-28.32-24.72-28.32h-13.44v54Z"/>
      <path class="cls-2" d="M250.52,0h64.08v15.84h-45.24v18.36h41.52v14.64h-41.52v21h46.2v15.84h-65.04V0Z"/>
      <path class="cls-2" d="M333.5,0h46.2c15.36,0,25.08,10.68,25.08,23.64,0,10.08-4.08,17.64-13.56,21.48v.24c9.24,2.4,11.88,11.4,12.48,20.04.36,5.4.24,15.48,3.6,20.28h-18.84c-2.28-5.4-2.04-13.68-3-20.52-1.32-9-4.8-12.96-14.28-12.96h-18.84v33.48h-18.84V0ZM352.34,38.76h20.64c8.4,0,12.96-3.6,12.96-12.24s-4.56-11.88-12.96-11.88h-20.64v24.12Z"/>
      <path class="cls-2" d="M424.4,0h64.08v15.84h-45.24v18.36h41.52v14.64h-41.52v21h46.2v15.84h-65.04V0Z"/>
      <path class="cls-2" d="M507.38,0h46.2c15.36,0,25.08,10.68,25.08,23.64,0,10.08-4.08,17.64-13.56,21.48v.24c9.24,2.4,11.88,11.4,12.48,20.04.36,5.4.24,15.48,3.6,20.28h-18.84c-2.28-5.4-2.04-13.68-3-20.52-1.32-9-4.8-12.96-14.28-12.96h-18.84v33.48h-18.84V0ZM526.22,38.76h20.64c8.4,0,12.96-3.6,12.96-12.24s-4.56-11.88-12.96-11.88h-20.64v24.12Z"/>
    </g>
  </g>
</svg>